# xmcd CD database file
#
# Track frame offsets:
#	200
#	13775
#	26525
#	40400
#	56525
#	71450
#	80375
#	91700
#	103250
#	116375
#	128075
#	140075
#	151475
#	160475
#	173375
#
# Disc length: 2415 seconds
#
# Revision: 2
# Processed by: cddbd v1.5.2PL0 Copyright (c) Steve Scherf et al.
# Submitted via: jetAudio 7
#
DISCID=bc096d0f
DTITLE=Floyd Cramer - Floyd Cramer Plays Your All-Time Country Favorite
DTITLE=s - Disc 2
DYEAR=1900
DGENRE=Country
TTITLE0=Friends In Low Places
TTITLE1=Wings Of A Dove
TTITLE2=My Special Angel
TTITLE3=Always On My Mind
TTITLE4=Faded Love
TTITLE5=San Antonio Rose
TTITLE6=The Three Bells
TTITLE7=There Goes My Everything
TTITLE8=For The Good Times
TTITLE9=Lovesick Blues
TTITLE10=King Of The Road
TTITLE11=Please Help Me, I'm Falling
TTITLE12=Forever And Ever, Amen
TTITLE13=Have I Told You Lately That I Love You
TTITLE14=Hey Good Lookin'
EXTD=
EXTT0=
EXTT1=
EXTT2=
EXTT3=
EXTT4=
EXTT5=
EXTT6=
EXTT7=
EXTT8=
EXTT9=
EXTT10=
EXTT11=
EXTT12=
EXTT13=
EXTT14=
PLAYORDER=
